<?xml version="1.0" encoding="UTF-8" standalone="no"?>
<!-- Created with Inkscape (http://www.inkscape.org/) -->

<svg
   xmlns:dc="http://purl.org/dc/elements/1.1/"
   xmlns:cc="http://creativecommons.org/ns#"
   xmlns:rdf="http://www.w3.org/1999/02/22-rdf-syntax-ns#"
   xmlns:svg="http://www.w3.org/2000/svg"
   xmlns="http://www.w3.org/2000/svg"
   xmlns:sodipodi="http://sodipodi.sourceforge.net/DTD/sodipodi-0.dtd"
   xmlns:inkscape="http://www.inkscape.org/namespaces/inkscape"
   width="50mm"
   height="50mm"
   viewBox="0 0 50 50"
   version="1.1"
   id="svg4339"
   inkscape:version="0.92+devel unknown"
   sodipodi:docname="key_resources.svg"
   inkscape:export-filename="/home/nharrington/projects/SoftwareWorkflow/bmfiddle_icons/50x50_spectrum.png"
   inkscape:export-xdpi="96"
   inkscape:export-ydpi="96">
  <defs
     id="defs4333" />
  <sodipodi:namedview
     id="base"
     pagecolor="#ffffff"
     bordercolor="#666666"
     borderopacity="1.0"
     inkscape:pageopacity="0.0"
     inkscape:pageshadow="2"
     inkscape:zoom="3.1168972"
     inkscape:cx="94.488189"
     inkscape:cy="88.504255"
     inkscape:document-units="mm"
     inkscape:current-layer="layer1"
     inkscape:document-rotation="0"
     showgrid="false"
     fit-margin-top="0"
     fit-margin-left="0"
     fit-margin-right="0"
     fit-margin-bottom="0"
     inkscape:window-width="1920"
     inkscape:window-height="1027"
     inkscape:window-x="0"
     inkscape:window-y="27"
     inkscape:window-maximized="1" />
  <metadata
     id="metadata4336">
    <rdf:RDF>
      <cc:Work
         rdf:about="">
        <dc:format>image/svg+xml</dc:format>
        <dc:type
           rdf:resource="http://purl.org/dc/dcmitype/StillImage" />
        <dc:title></dc:title>
      </cc:Work>
    </rdf:RDF>
  </metadata>
  <g
     inkscape:label="Layer 1"
     inkscape:groupmode="layer"
     id="layer1"
     transform="translate(-10.244623,-37.25136)">
    <ellipse
       style="fill:none;stroke:#000000;stroke-width:0.66499996;stroke-miterlimit:4;stroke-dasharray:none;stroke-opacity:1"
       id="path5185"
       cx="26.053196"
       cy="54.469845"
       rx="6.1785569"
       ry="6.2822614" />
    <path
       style="fill:none;stroke:#000000;stroke-width:0.66500002;stroke-linecap:butt;stroke-linejoin:miter;stroke-miterlimit:4;stroke-dasharray:none;stroke-opacity:1"
       d="M 23.239281,59.963009 C 9.4770568,63.350645 13.66044,74.710108 13.66044,74.710108 l 12.594139,0.14477"
       id="path5187"
       inkscape:connector-curvature="0"
       sodipodi:nodetypes="ccc" />
    <path
       style="fill:none;stroke:#000000;stroke-width:0.66500002;stroke-linecap:butt;stroke-linejoin:miter;stroke-miterlimit:4;stroke-dasharray:none;stroke-opacity:1"
       d="m 28.986066,59.879425 c 13.762225,3.387636 9.330422,14.842592 9.330422,14.842592 l -12.594139,0.14477"
       id="path5187-6"
       inkscape:connector-curvature="0"
       sodipodi:nodetypes="ccc" />
    <path
       style="fill:none;stroke:#000000;stroke-width:0.665;stroke-linecap:butt;stroke-linejoin:miter;stroke-opacity:1;stroke-miterlimit:4;stroke-dasharray:none"
       d="M 36.83661,58.557575 V 64.06918"
       id="path5204"
       inkscape:connector-curvature="0" />
    <path
       style="fill:none;stroke:#000000;stroke-width:0.665;stroke-linecap:butt;stroke-linejoin:miter;stroke-opacity:1;stroke-miterlimit:4;stroke-dasharray:none"
       d="m 36.754513,54.30506 4.064121,7.039264 v -7.327682 l 4.731625,8.195415 V 48.19403 h 8.710288 V 72.732976 H 38.553055"
       id="path5206"
       inkscape:connector-curvature="0" />
    <path
       style="fill:none;stroke:#000000;stroke-width:0.665;stroke-linecap:butt;stroke-linejoin:miter;stroke-opacity:1;stroke-miterlimit:4;stroke-dasharray:none"
       d="m 36.754513,54.30506 0.0821,4.252515"
       id="path5210"
       inkscape:connector-curvature="0" />
    <path
       style="fill:none;stroke:#000000;stroke-width:0.665;stroke-linecap:butt;stroke-linejoin:miter;stroke-opacity:1;stroke-miterlimit:4;stroke-dasharray:none"
       d="m 53.797955,38.959454 c -0.343813,0 -0.687623,0 -1.031436,0 -0.02233,0 -0.30806,-0.0092 -0.335002,0 -0.01699,0.0058 -0.02201,0.03003 -0.03806,0.03807 -0.0099,0.005 -0.248028,0.08469 -0.253601,0.08608 -0.0325,0.0081 -0.161337,-0.01193 -0.174185,0 -0.01934,0.01796 -0.01574,0.05245 -0.03398,0.07152 -0.0079,0.0083 -0.02416,-0.0051 -0.03442,0 -0.08219,0.0412 -0.100385,0.08122 -0.182081,0.108449 -0.01185,0.0039 -0.02847,-0.0087 -0.03745,0 -0.0087,0.0084 0.0054,0.02539 0,0.03617 -0.01408,0.02817 -0.05326,0.03809 -0.06742,0.06623 -0.0398,0.07912 0.0954,-0.02945 -0.03225,0.09746 -0.01786,0.01776 -0.04977,0.016 -0.06758,0.03381 -0.008,0.008 0.0051,0.02372 0,0.03376 -0.0069,0.01369 -0.02461,0.01918 -0.03325,0.03186 -0.0132,0.01937 -0.01844,0.04341 -0.03142,0.06294 -0.0081,0.01221 -0.02461,0.01797 -0.03112,0.03112 -0.0047,0.0095 0,0.02111 0,0.03166 -0.01101,0.02181 -0.01773,0.04636 -0.03299,0.06543 -0.04611,0.05761 -0.135999,0.116321 -0.179467,0.181444 -0.01527,0.02287 -0.02162,0.0509 -0.03689,0.07377 -0.0097,0.01456 -0.02928,0.02148 -0.03712,0.03712 -0.0055,0.01101 0.0039,0.02526 0,0.03696 -0.0086,0.02589 -0.03007,0.04673 -0.03662,0.07322 -0.009,0.03648 0.01196,0.07711 0,0.112745 -0.08597,0.256347 0.0062,-0.04145 -0.07284,0.108296 -0.01172,0.02217 0,0.344268 0,0.371956 0,0.406089 0,0.812178 0,1.218268 0,0.249399 0,0.498799 0,0.748199 0,0.04097 0.0067,0.157674 0,0.162049 -0.01672,0.01091 -0.04047,-0.0046 -0.0599,0 -0.127378,0.03025 -0.0021,0.01476 -0.08353,0.05544 -0.02503,0.01251 -0.05679,-0.0068 -0.08392,0 -0.149749,0.03762 0.0095,0.01153 -0.08756,0.05839 -0.03108,0.01501 -0.07014,0.01235 -0.09843,0.03211 -0.0798,0.05574 -0.116813,0.13897 -0.193506,0.196205 -0.0249,0.01858 -0.06151,0.01959 -0.08335,0.04167 -0.09485,0.09588 -0.104375,0.211907 -0.174691,0.305662 -0.02474,0.03297 -0.06623,0.05209 -0.08743,0.08744 -0.02371,0.03952 -0.0266,0.08837 -0.04372,0.131154 -0.01209,0.03026 -0.02915,0.05829 -0.04372,0.08744 -0.01458,0.02914 -0.02416,0.06137 -0.04372,0.08744 -0.25973,0.259737 0.01982,-0.06104 -0.08743,0.174873 -0.0055,0.01206 -0.0265,0 -0.03975,0 0,0.02372 0,0.04744 0,0.07115 0,0.908498 0,1.816996 0,2.725494 0,0.181037 0,0.362075 0,0.543112 0,0.05955 0,0.119106 0,0.17866 0,0.02274 0,0.04548 0,0.06823 0,0.0071 0,0.02846 0,0.02134 0,-0.0145 0,-0.05799 0,-0.04349 0,0.09115 0,0.182296 0,0.273444 0,0.02937 0,0.05874 0,0.08811 0,0.007 0,0.02796 0,0.02097 0,-0.01422 0,-0.02844 0,-0.04265"
       id="path5214"
       inkscape:connector-curvature="0" />
  </g>
</svg>
